<?xml version="1.0" standalone="no"?>
<!DOCTYPE svg PUBLIC "-//W3C//DTD SVG 20010904//EN"
 "http://www.w3.org/TR/2001/REC-SVG-20010904/DTD/svg10.dtd">
<svg version="1.0" xmlns="http://www.w3.org/2000/svg"
 width="700.000000pt" height="700.000000pt" viewBox="0 0 700.000000 700.000000"
 preserveAspectRatio="xMidYMid meet">
<metadata>
Created by potrace 1.14, written by Peter Selinger 2001-2017
</metadata>
<g transform="translate(0.000000,700.000000) scale(0.100000,-0.100000)"
fill="#000000" stroke="none">
<path d="M569 6828 c-2 -4 -5 -63 -13 -218 -3 -74 -8 -164 -11 -200 -2 -36 -7
-117 -10 -180 -3 -63 -8 -153 -10 -200 -3 -47 -7 -132 -10 -190 -3 -58 -8
-143 -11 -190 -2 -47 -7 -130 -9 -185 -2 -55 -7 -145 -10 -200 -3 -55 -8 -143
-10 -195 -3 -52 -7 -135 -10 -185 -10 -167 -14 -249 -21 -395 -4 -80 -7 -151
-7 -157 0 -10 -51 -13 -219 -13 l-218 0 0 -2075 0 -2075 3447 2 3448 3 0 2308
0 2307 52 0 53 0 0 120 0 120 -978 0 -977 0 0 601 c1 404 -3 603 -10 607 -16
10 -196 8 -203 -2 -3 -5 -5 -279 -5 -608 l1 -598 -91 0 -92 0 2 602 c1 349 -2
605 -7 608 -5 3 -53 5 -107 5 l-98 -1 -3 -607 -2 -607 -90 0 -90 0 0 605 c0
477 -3 605 -12 606 -7 1 -55 2 -106 3 -74 1 -93 -2 -97 -14 -2 -8 -4 -280 -3
-603 0 -323 -2 -590 -4 -593 -3 -2 -140 -6 -304 -7 l-299 -2 0 -117 -1 -118
53 0 53 0 0 -235 0 -235 -115 0 c-85 0 -115 3 -116 13 -2 16 -4 61 -14 232 -4
77 -9 160 -10 185 -1 25 -6 113 -10 195 -4 83 -8 167 -10 187 -1 20 -6 104
-10 187 -3 82 -8 173 -10 203 -4 66 -19 349 -30 573 -3 66 -8 143 -9 170 -2
28 -7 122 -11 210 -4 88 -9 174 -10 190 -2 17 -3 60 -4 98 l-1 67 -530 0
c-417 0 -530 -3 -531 -12 -4 -45 -7 -90 -14 -228 -4 -85 -9 -180 -10 -210 -1
-30 -5 -109 -9 -175 -4 -66 -9 -158 -11 -205 -8 -143 -15 -280 -20 -380 -5
-105 -13 -240 -20 -370 -2 -47 -7 -137 -10 -200 -4 -63 -8 -146 -10 -185 -2
-38 -7 -128 -10 -200 -4 -71 -8 -148 -10 -170 -2 -22 -4 -71 -4 -108 l-1 -68
-112 3 -113 3 -1 45 c-2 55 -13 268 -19 365 -2 39 -7 129 -10 200 -3 72 -8
153 -10 180 -2 28 -7 109 -10 180 -6 127 -8 178 -20 400 -4 61 -8 144 -10 185
-2 41 -7 127 -10 190 -3 63 -8 151 -10 195 -4 78 -13 237 -20 360 -2 33 -4 93
-5 133 l-3 72 -528 0 c-291 0 -530 -1 -530 -2z"/>
</g>
</svg>
